<svg xmlns="http://www.w3.org/2000/svg" width="512" height="512" viewBox="0 0 512 512">
  <defs>
    <linearGradient id="gold" x1="0%" y1="0%" x2="100%" y2="100%">
      <stop offset="0%" stop-color="#FFD700"/>
      <stop offset="50%" stop-color="#FFC200"/>
      <stop offset="100%" stop-color="#FFD700"/>
    </linearGradient>
    <linearGradient id="shine" x1="0%" y1="0%" x2="0%" y2="100%">
      <stop offset="0%" stop-color="#FFE44D" stop-opacity="0.6"/>
      <stop offset="100%" stop-color="#FFD700" stop-opacity="0"/>
    </linearGradient>
  </defs>
  <!-- Background circle -->
  <circle cx="256" cy="256" r="248" fill="#000000" stroke="url(#gold)" stroke-width="8"/>
  <!-- Inner glow ring -->
  <circle cx="256" cy="256" r="220" fill="none" stroke="url(#gold)" stroke-width="1" opacity="0.3"/>
  <!-- Stylized M letterform -->
  <path d="M 136 368 L 136 168 L 196 168 L 256 280 L 316 168 L 376 168 L 376 368 L 328 368 L 328 248 L 272 352 L 240 352 L 184 248 L 184 368 Z" fill="url(#gold)"/>
  <!-- Subtle shine overlay on M -->
  <path d="M 136 168 L 196 168 L 256 280 L 316 168 L 376 168 L 376 220 L 316 220 L 256 320 L 196 220 L 136 220 Z" fill="url(#shine)"/>
  <!-- Code brackets accent < > -->
  <path d="M 88 240 L 112 256 L 88 272" fill="none" stroke="url(#gold)" stroke-width="6" stroke-linecap="round" stroke-linejoin="round" opacity="0.5"/>
  <path d="M 424 240 L 400 256 L 424 272" fill="none" stroke="url(#gold)" stroke-width="6" stroke-linecap="round" stroke-linejoin="round" opacity="0.5"/>
</svg>
